# xmcd
#
# Track frame offsets:
#	150
#	17675
#	37282
#	53520
#	77337
#	100837
#	115992
#	137902
#	165377
#	185200
#	206097
#
# Disc length: 2885 seconds
#
# Revision: 1
# Processed by: cddbd v1.5.1PL0 Copyright (c) Steve Scherf et al.
# Submitted via: CDex 1.50Beta5
#
DISCID=920b430b
DTITLE=小林建樹 - Rare
DYEAR=2000
DGENRE=
TTITLE0=Rare
TTITLE1=SPooN
TTITLE2=不思議な夜
TTITLE3=祈り
TTITLE4=Cube°2
TTITLE5=ANTONIO
TTITLE6=進化
TTITLE7=トリガー
TTITLE8=目の前
TTITLE9=青空
TTITLE10=Tuning
EXTD=
EXTT0=
EXTT1=
EXTT2=
EXTT3=
EXTT4=
EXTT5=
EXTT6=
EXTT7=
EXTT8=
EXTT9=
EXTT10=
PLAYORDER=
